<svg width="478" height="420" viewBox="0 0 478 420" fill="none" xmlns="http://www.w3.org/2000/svg">
<g clip-path="url(#clip0_28_351)">
<path d="M193.112 127.641C185.464 139.171 191.678 160.134 205.54 171.244C211.037 175.437 218.446 179.419 222.509 180.258C231.352 181.725 232.069 182.983 230.396 191.159L228.962 197.657L222.748 193.465C213.666 187.176 200.76 188.434 200.76 195.561C200.76 201.221 214.622 210.654 222.031 209.816C227.767 209.187 228.245 209.816 228.962 217.991L229.679 227.005H208.169C195.263 227.005 186.42 227.844 186.42 229.102C186.42 230.359 203.15 231.198 231.83 231.198C259.315 231.198 277.24 230.359 277.24 229.102C277.24 228.053 267.919 226.796 256.447 226.586L235.415 225.957V206.042C235.415 188.853 236.371 184.87 241.39 177.114C246.648 168.938 247.843 168.309 257.164 168.309C264.573 168.309 269.353 166.842 274.85 162.859C288.951 152.377 294.209 135.817 283.932 134.349C267.202 132.043 250.233 142.315 245.453 157.199L242.824 165.794L239 155.522C234.22 143.573 227.528 136.446 216.295 131.624C206.018 127.431 194.546 125.545 193.112 127.641ZM214.861 136.865C225.855 141.686 233.503 151.539 235.654 163.697C236.61 168.519 236.61 172.502 235.893 172.502C235.415 172.502 230.396 167.261 224.899 160.972C215.817 150.491 210.32 146.717 210.32 151.12C210.32 152.168 214.622 157.828 219.88 164.117C225.138 170.196 228.962 175.646 228.484 176.275C226.333 177.952 206.974 167.261 202.433 161.601C199.565 158.037 197.175 151.329 196.458 144.202C195.502 133.511 195.741 132.672 200.521 132.672C203.389 132.672 209.842 134.559 214.861 136.865ZM283.215 143.573C279.391 154.893 265.768 165.374 256.447 163.697C253.579 163.278 255.013 161.601 261.227 157.828C266.007 154.893 270.07 151.329 270.07 149.862C270.07 146.088 267.919 146.717 258.837 152.797C248.56 159.714 248.56 155.312 259.076 146.088C265.29 140.638 269.114 138.961 276.045 138.961C283.932 138.961 284.649 139.38 283.215 143.573ZM221.792 198.076C226.333 201.431 225.138 203.946 219.163 203.946C213.188 203.946 204.345 197.238 207.213 194.932C209.125 193.255 217.251 195.142 221.792 198.076ZM212.232 262.013C212.71 269.35 212.471 277.945 211.515 280.88L210.081 286.33L204.345 281.509C201.238 278.784 196.697 272.075 194.785 266.625C192.634 260.965 190.005 255.934 189.049 255.305C187.854 254.886 186.42 262.642 185.703 272.704C184.986 282.767 183.552 292.619 182.835 294.506C181.879 296.602 182.118 298.279 183.552 298.279C184.986 298.279 186.898 292.829 187.854 286.121C190.005 269.979 190.961 269.35 196.936 278.574C203.15 288.217 209.603 292.2 212.471 288.007C213.666 286.54 215.339 279.832 216.056 273.124C217.012 265.996 218.685 261.175 220.597 261.175C222.27 261.175 225.616 260.336 228.006 259.498C232.308 257.821 232.547 258.659 230.874 276.897C229.679 290.732 229.918 296.183 232.069 296.183C233.503 296.183 234.22 294.715 233.264 293.038C232.308 290.942 237.327 285.282 247.604 276.268C261.466 264.529 263.139 262.013 262.422 255.934C261.705 249.645 260.988 249.016 252.862 248.387C247.126 247.968 240.195 249.436 232.069 252.999C218.207 259.288 217.49 259.498 217.49 255.515C217.49 254.047 216.056 251.741 214.622 250.484C212.232 248.807 211.754 251.113 212.232 262.013ZM258.12 252.161C261.227 253.838 260.988 255.096 257.164 261.594C252.862 268.721 237.088 282.557 235.415 281.09C234.937 280.67 235.176 274.591 235.893 267.464C237.088 255.724 237.805 254.257 243.541 252.37C251.667 249.855 253.818 249.645 258.12 252.161ZM267.68 262.642C267.68 270.818 266.724 273.543 262.9 275.22C257.403 277.735 256.447 281.509 261.466 281.509C263.139 281.509 265.29 284.234 266.246 287.798C266.963 291.781 269.114 294.087 271.743 294.087C274.85 294.087 275.089 293.458 272.938 291.571C271.265 290.104 270.07 287.169 270.07 285.072C270.07 281.299 270.548 281.299 279.152 285.911C299.467 296.812 320.26 303.31 320.26 298.698C320.26 297.65 316.197 296.183 311.417 295.344C306.398 294.715 295.165 289.894 286.083 284.863L270.07 275.639L282.498 266.835C294.687 258.45 300.901 252.161 297.077 252.161C296.121 252.37 290.385 256.144 284.41 260.546L273.655 268.931L272.938 260.546C271.982 248.597 267.68 250.064 267.68 262.642Z" fill="#01886E"/>
</g>
<defs>
<clipPath id="clip0_28_351">
<rect width="478" height="419.258" fill="white" transform="translate(0 0.605911)"/>
</clipPath>
</defs>
</svg>
